<svg viewBox="0 0 1920 420" xmlns="http://www.w3.org/2000/svg">

<rect width="1920" height="420" fill="transparent"></rect>

<path d="
M0 420 
L0 340 
L60 340 
L60 300 
L120 300 
L120 360 
L200 360 
L200 260 
L260 260 
L260 420 
L350 420 
L350 320 
L420 320 
L420 260 
L500 260 
L500 360 
L600 360 
L600 240 
L680 240 
L680 420 
L760 420 
L760 300 
L840 300 
L840 260 
L920 260 
L920 340 
L1000 340 
L1000 220 
L1080 220 
L1080 420 
L1200 420 
L1200 300 
L1300 300 
L1300 260 
L1400 260 
L1400 340 
L1500 340 
L1500 260 
L1580 260 
L1580 420 
L1680 420 
L1680 320 
L1760 320 
L1760 360 
L1860 360 
L1860 420 
L1920 420 
Z" fill="#ffffff"></path>

</svg>