<svg viewBox="0 0 1200 600" xmlns="http://www.w3.org/2000/svg">
  <rect width="1200" height="600" fill="transparent"></rect>

  <g fill="none" stroke="rgba(255,255,255,0.18)" stroke-width="1.2">
    <path d="M110 240c30-35 70-65 120-80 35-10 60-30 95-35 38-6 78-2 118 8 18 5 27 17 39 28 18 16 36 17 59 20 43 6 79 3 118-7 30-8 53-20 78-37 13-8 29-11 44-12 31-2 53 12 77 27 32 19 55 23 90 22 28 0 57 7 75 27 21 24 35 45 67 52 23 5 44 15 58 35 12 18 14 39 2 58-17 27-36 50-67 60-34 12-63 0-96 7-31 7-59 23-91 26-34 4-69-8-104-5-38 3-73 15-111 15-34 0-62-15-93-22-41-9-83-13-122-30-26-11-46-32-71-46-18-10-41-11-61-17-23-8-43-18-61-35-14-13-19-33-18-52 2-29 17-47 36-67z"></path>
    <path d="M260 455c23-10 48-18 74-18 18 0 37 3 52 14 12 9 22 22 19 38-4 23-24 34-44 41-18 6-37 12-57 11-28-2-55-18-64-45-6-18 0-33 20-41z"></path>
    <path d="M835 375c17-15 37-26 60-27 20-1 42 8 50 28 8 19-5 35-19 46-17 14-37 22-58 28-21 7-45 6-60-13-16-20-6-45 7-62 5-7 12-13 20-18z"></path>
    <path d="M935 450c17-9 35-13 54-10 17 4 31 14 36 31 5 15-4 27-15 36-13 11-28 16-45 18-21 2-41-3-53-21-13-18-3-41 10-54 4-4 8-7 13-10z"></path>
  </g>

  <g fill="rgba(212,175,55,0.14)">
    <path d="M110 240c30-35 70-65 120-80 35-10 60-30 95-35 38-6 78-2 118 8 18 5 27 17 39 28 18 16 36 17 59 20 43 6 79 3 118-7 30-8 53-20 78-37 13-8 29-11 44-12 31-2 53 12 77 27 32 19 55 23 90 22 28 0 57 7 75 27 21 24 35 45 67 52 23 5 44 15 58 35 12 18 14 39 2 58-17 27-36 50-67 60-34 12-63 0-96 7-31 7-59 23-91 26-34 4-69-8-104-5-38 3-73 15-111 15-34 0-62-15-93-22-41-9-83-13-122-30-26-11-46-32-71-46-18-10-41-11-61-17-23-8-43-18-61-35-14-13-19-33-18-52 2-29 17-47 36-67z"></path>
    <path d="M260 455c23-10 48-18 74-18 18 0 37 3 52 14 12 9 22 22 19 38-4 23-24 34-44 41-18 6-37 12-57 11-28-2-55-18-64-45-6-18 0-33 20-41z"></path>
    <path d="M835 375c17-15 37-26 60-27 20-1 42 8 50 28 8 19-5 35-19 46-17 14-37 22-58 28-21 7-45 6-60-13-16-20-6-45 7-62 5-7 12-13 20-18z"></path>
    <path d="M935 450c17-9 35-13 54-10 17 4 31 14 36 31 5 15-4 27-15 36-13 11-28 16-45 18-21 2-41-3-53-21-13-18-3-41 10-54 4-4 8-7 13-10z"></path>
  </g>
</svg>